<?xml version="1.0" encoding="UTF-8" standalone="no"?>
<!-- Generator: Adobe Illustrator 16.0.0, SVG Export Plug-In . SVG Version: 6.00 Build 0)  -->

<svg
   xmlns:dc="http://purl.org/dc/elements/1.1/"
   xmlns:cc="http://creativecommons.org/ns#"
   xmlns:rdf="http://www.w3.org/1999/02/22-rdf-syntax-ns#"
   xmlns:svg="http://www.w3.org/2000/svg"
   xmlns="http://www.w3.org/2000/svg"
   xmlns:xlink="http://www.w3.org/1999/xlink"
   xmlns:sodipodi="http://sodipodi.sourceforge.net/DTD/sodipodi-0.dtd"
   xmlns:inkscape="http://www.inkscape.org/namespaces/inkscape"
   version="1.1"
   id="Capa_1"
   x="0px"
   y="0px"
   width="206.793px"
   height="206.793px"
   viewBox="0 0 206.793 206.793"
   style="enable-background:new 0 0 206.793 206.793;"
   xml:space="preserve"
   sodipodi:docname="avatar.svg"
   inkscape:version="0.92.4 (5da689c313, 2019-01-14)"><metadata
   id="metadata51"><rdf:RDF><cc:Work
       rdf:about=""><dc:format>image/svg+xml</dc:format><dc:type
         rdf:resource="http://purl.org/dc/dcmitype/StillImage" /><dc:title /></cc:Work></rdf:RDF></metadata><defs
   id="defs49"><linearGradient
     inkscape:collect="always"
     id="linearGradient857"><stop
       style="stop-color:#95e1e1;stop-opacity:1"
       offset="0"
       id="stop853" /><stop
       style="stop-color:#999999;stop-opacity:1"
       offset="1"
       id="stop855" /></linearGradient><linearGradient
     inkscape:collect="always"
     xlink:href="#linearGradient857"
     id="linearGradient859"
     x1="-0.87624151"
     y1="206.793"
     x2="206.793"
     y2="2.8421709e-14"
     gradientUnits="userSpaceOnUse" /></defs><sodipodi:namedview
   pagecolor="#ffffff"
   bordercolor="#666666"
   borderopacity="1"
   objecttolerance="10"
   gridtolerance="10"
   guidetolerance="10"
   inkscape:pageopacity="0"
   inkscape:pageshadow="2"
   inkscape:window-width="1600"
   inkscape:window-height="844"
   id="namedview47"
   showgrid="false"
   inkscape:zoom="1.6139541"
   inkscape:cx="155.45727"
   inkscape:cy="19.052946"
   inkscape:window-x="0"
   inkscape:window-y="28"
   inkscape:window-maximized="1"
   inkscape:current-layer="Capa_1" />
<rect
   style="opacity:1;fill:url(#linearGradient859);fill-opacity:1;fill-rule:evenodd;stroke:#000000;stroke-width:0.056;stroke-miterlimit:4;stroke-dasharray:none;stroke-dashoffset:0;stroke-opacity:1"
   id="rect860"
   width="207.66924"
   height="206.793"
   x="-0.87624151"
   y="2.8421709e-14" /><g
   id="g14">
	<g
   id="g12">
		<path
   d="M196.189,3.977H10.605C4.751,3.977,0,7.239,0,11.268c0,2.693,2.141,5.015,5.302,6.284v21.554    c0,1.463,1.188,2.651,2.651,2.651s2.651-1.188,2.651-2.651V18.559h66.614V25.5c-3.037-0.622-6.172-0.976-9.391-0.976    c-1.007,0-1.983,0.09-2.975,0.147c0.329-0.096,0.536-0.147,0.536-0.147c-19.211-4.417-44.402,4.417-44.402,4.417    c-3.298,10.383,0,42.425,0,42.425c0,12.042,4.604,22.996,12.094,31.307c-0.254,2.49-0.381,5.023-0.381,7.581    c0,32.964,21.543,60.854,51.323,70.438c0.285-12.567-0.383-41.202-10.734-62.836c13.903-1.621,25.973-9.331,33.433-20.412    c7.068,10.501,18.289,17.927,31.266,20.07c-10.688,22.048-11.186,51.574-10.864,63.846c30.944-8.864,53.609-37.303,53.609-71.105    c0-2.558-0.13-5.091-0.378-7.581c7.487-8.311,12.091-19.271,12.091-31.307c0-2.499-0.254-4.938-0.632-7.327    c0.762-10.092,1.673-27.853-0.627-35.098c0,0-25.196-8.833-44.407-4.417c0,0,0.146,0.042,0.27,0.075    c-0.487-0.018-0.958-0.075-1.439-0.075c-1.383,0-2.745,0.075-4.091,0.197v-6.162h54.671c5.851,0,10.604-3.262,10.604-7.291    C206.793,7.239,202.04,3.977,196.189,3.977z M125.87,28.94c-4.246,1.989-8.182,4.56-11.619,7.674    c-2.476-0.251-4.992-0.378-7.535-0.378c-2.545,0-5.059,0.126-7.534,0.378c-3.441-3.115-7.376-5.686-11.623-7.674H125.87z     M143.165,32.478c21.479,0,38.888,17.409,38.888,38.888c0,21.479-17.409,38.888-38.888,38.888    c-16.632,0-30.789-10.46-36.34-25.145c-5.564,14.685-19.716,25.145-36.346,25.145c-21.479,0-38.887-17.409-38.887-38.888    c0-21.479,17.409-38.888,38.887-38.888c16.635,0,30.787,10.462,36.346,25.145C112.375,42.939,126.533,32.478,143.165,32.478z"
   id="path2" />
		<circle
   cx="67.828"
   cy="71.365"
   r="15.918"
   id="circle4" />
		<circle
   cx="145.604"
   cy="71.365"
   r="15.918"
   id="circle6" />
		<path
   d="M68.268,184.269H62.51c-5.859,0-10.605,4.153-10.605,9.274s4.746,9.273,10.605,9.273h5.758    c5.854,0,10.605-4.152,10.605-9.273S74.122,184.269,68.268,184.269z"
   id="path8" />
		<path
   d="M146.043,184.269h-5.758c-5.852,0-10.604,4.153-10.604,9.274s4.753,9.273,10.604,9.273h5.758    c5.852,0,10.605-4.152,10.605-9.273S151.905,184.269,146.043,184.269z"
   id="path10" />
	</g>
</g>
<g
   id="g16">
</g>
<g
   id="g18">
</g>
<g
   id="g20">
</g>
<g
   id="g22">
</g>
<g
   id="g24">
</g>
<g
   id="g26">
</g>
<g
   id="g28">
</g>
<g
   id="g30">
</g>
<g
   id="g32">
</g>
<g
   id="g34">
</g>
<g
   id="g36">
</g>
<g
   id="g38">
</g>
<g
   id="g40">
</g>
<g
   id="g42">
</g>
<g
   id="g44">
</g>
</svg>