<?xml version="1.0" encoding="UTF-8" standalone="no"?>
<svg
   xmlns:dc="http://purl.org/dc/elements/1.1/"
   xmlns:cc="http://creativecommons.org/ns#"
   xmlns:rdf="http://www.w3.org/1999/02/22-rdf-syntax-ns#"
   xmlns:svg="http://www.w3.org/2000/svg"
   xmlns="http://www.w3.org/2000/svg"
   xmlns:xlink="http://www.w3.org/1999/xlink"
   xmlns:sodipodi="http://sodipodi.sourceforge.net/DTD/sodipodi-0.dtd"
   xmlns:inkscape="http://www.inkscape.org/namespaces/inkscape"
   width="420mm"
   height="286mm"
   viewBox="0 0 420 286"
   version="1.1"
   id="svg8"
   inkscape:version="1.0.1 (3bc2e813f5, 2020-09-07)"
   sodipodi:docname="pic02.svg">
  <defs
     id="defs2">
    <linearGradient
       inkscape:collect="always"
       id="linearGradient847">
      <stop
         style="stop-color:#008080;stop-opacity:0.51793034"
         offset="0"
         id="stop843" />
      <stop
         style="stop-color:#008080;stop-opacity:0;"
         offset="1"
         id="stop845" />
    </linearGradient>
    <linearGradient
       inkscape:collect="always"
       xlink:href="#linearGradient847"
       id="linearGradient849"
       x1="-0.47417739"
       y1="286.06628"
       x2="419.99152"
       y2="-0.48511249"
       gradientUnits="userSpaceOnUse"
       gradientTransform="translate(1.4994232,0.76872543)" />
  </defs>
  <sodipodi:namedview
     id="base"
     pagecolor="#ffffff"
     bordercolor="#666666"
     borderopacity="1.0"
     inkscape:pageopacity="0.0"
     inkscape:pageshadow="2"
     inkscape:zoom="0.44167224"
     inkscape:cx="789.28568"
     inkscape:cy="247.43871"
     inkscape:document-units="mm"
     inkscape:current-layer="layer1"
     inkscape:document-rotation="0"
     showgrid="false"
     inkscape:window-width="1535"
     inkscape:window-height="1024"
     inkscape:window-x="50"
     inkscape:window-y="28"
     inkscape:window-maximized="0" />
  <metadata
     id="metadata5">
    <rdf:RDF>
      <cc:Work
         rdf:about="">
        <dc:format>image/svg+xml</dc:format>
        <dc:type
           rdf:resource="http://purl.org/dc/dcmitype/StillImage" />
        <dc:title></dc:title>
      </cc:Work>
    </rdf:RDF>
  </metadata>
  <g
     inkscape:label="Layer 1"
     inkscape:groupmode="layer"
     id="layer1">
    <rect
       style="fill:url(#linearGradient849);fill-opacity:1;stroke:#000000;stroke-width:0.499999;stroke-linejoin:round"
       id="rect10"
       width="420.4657"
       height="286.55139"
       x="1.0252457"
       y="0.28361306" />
    <path
       style="fill:#11cd15;stroke-width:0.0846667"
       d="m 289.72167,118.75972 c -0.85376,-0.11821 -2.29249,-0.49412 -2.76665,-0.72287 -0.22413,-0.10812 -0.43207,-0.19659 -0.46207,-0.19659 -0.15459,0 -1.29627,-1.03024 -1.81282,-1.63588 -0.66545,-0.78022 -1.16296,-1.71312 -1.45292,-2.72445 -0.16605,-0.57913 -0.19368,-0.8676 -0.19062,-1.98968 0.003,-0.99233 0.0406,-1.44654 0.15549,-1.86267 0.85939,-3.11375 3.10821,-5.40657 6.02062,-6.13844 2.33589,-0.58698 4.15336,-0.24789 6.34205,1.18327 0.99892,0.65319 1.75272,1.39915 1.41385,1.39915 -0.0422,0 -0.0556,0.0808 -0.0298,0.17949 0.0466,0.1782 0.0452,0.17837 -0.19843,0.023 -0.13495,-0.0861 -0.39565,-0.26333 -0.57934,-0.3939 -0.18369,-0.13056 -0.37966,-0.21986 -0.43549,-0.19843 -0.0558,0.0214 -0.19129,-0.0573 -0.30102,-0.17498 -0.25116,-0.26933 -0.87397,-0.58898 -1.44958,-0.744 -0.41857,-0.11272 -0.42676,-0.11998 -0.14693,-0.13031 0.26089,-0.01 0.27396,-0.02 0.10925,-0.0863 -0.1029,-0.0414 -0.44087,-0.10931 -0.75105,-0.15087 -0.5258,-0.0704 -0.55194,-0.0664 -0.38626,0.0595 0.16601,0.12619 0.11243,0.13562 -0.81529,0.1434 -1.00808,0.008 -2.20657,0.22969 -2.74077,0.50593 -0.30268,0.15653 -0.40378,0.15467 -0.19456,-0.004 0.19107,-0.14452 0.10227,-0.1704 -0.13993,-0.0408 -0.0914,0.0489 -0.14404,0.12467 -0.11703,0.16837 0.027,0.0437 -0.002,0.06 -0.0636,0.0362 -0.062,-0.0238 -0.18777,0.0176 -0.27957,0.0919 -0.0918,0.0743 -0.10975,0.10768 -0.0399,0.0741 0.22051,-0.10597 -0.009,0.0788 -0.74061,0.59699 -1.36076,0.96344 -2.24291,2.18546 -2.7856,3.85884 -0.20753,0.63991 -0.23192,0.83951 -0.23225,1.90035 -3.4e-4,1.2209 0.0671,1.5876 0.51558,2.80048 0.41803,1.1306 1.52378,2.26731 2.86188,2.942 1.26782,0.63924 2.23761,0.82759 3.175,0.61662 0.71638,-0.16123 1.03994,-0.26295 1.32981,-0.41805 0.13009,-0.0696 0.5699,-0.28855 0.97736,-0.48652 0.40746,-0.19797 0.74083,-0.39405 0.74083,-0.43573 0,-0.0417 0.0373,-0.0527 0.0829,-0.0245 0.0456,0.0282 0.16561,0.007 0.26668,-0.0471 0.19823,-0.10608 0.83574,-0.74722 0.83574,-0.84048 0,-0.0312 0.11531,-0.1679 0.25625,-0.30372 0.14093,-0.13582 0.3134,-0.36125 0.38326,-0.50095 0.14584,-0.29162 0.24671,-0.45828 0.56369,-0.93133 0.12482,-0.18626 0.32867,-0.61489 0.45301,-0.9525 l 0.22608,-0.61383 0.51935,0.001 c 0.70038,0.002 0.94127,0.13126 0.94761,0.50973 0.003,0.16135 -0.0449,0.3437 -0.10583,0.40524 -0.10817,0.10928 -0.14673,0.28022 -0.11512,0.51045 0.009,0.0629 -0.0245,0.0895 -0.0737,0.0591 -0.0532,-0.0329 -0.0701,-0.005 -0.0418,0.0687 0.0866,0.22573 -0.54082,1.35239 -1.04683,1.87973 -1.19767,1.24815 -2.91463,2.33212 -3.998,2.52406 -0.11642,0.0206 -0.32597,0.0835 -0.46567,0.13969 -0.32684,0.1315 -2.4428,0.17809 -3.21733,0.0708 z m 0.96532,-14.17909 c 0.46606,-0.11736 0.64307,-0.20242 0.42125,-0.20242 -0.19064,0 -1.0946,0.24717 -1.24887,0.34148 -0.1522,0.0931 0.0222,0.0637 0.82762,-0.13906 z m 1.16682,10.16712 c -0.22432,-0.11522 -0.49491,-0.20949 -0.60131,-0.20949 -0.29877,0 -0.74746,-0.34885 -0.97213,-0.75581 -0.52556,-0.95201 -2.11451,-6.30327 -2.00325,-6.74655 0.0591,-0.23543 0.38592,-0.27974 0.55555,-0.0753 0.058,0.0699 0.14875,0.127 0.20174,0.127 0.19852,0 0.55716,0.43703 0.64311,0.7837 0.20191,0.81432 0.72276,2.32248 1.48376,4.29632 0.17055,0.44239 0.33154,0.89959 0.35773,1.01601 0.0262,0.11641 0.0978,0.28482 0.15921,0.37423 0.1034,0.15067 0.27131,0.005 2.29484,-1.99422 2.51526,-2.48474 2.82278,-2.77476 4.25761,-4.0152 1.10964,-0.95931 1.9974,-1.64619 2.12762,-1.64619 0.13593,0 0.9096,0.6297 0.96457,0.78507 0.0819,0.23143 -0.0314,0.60715 -0.21061,0.6988 -0.0887,0.0454 -0.32424,0.21583 -0.5234,0.37881 -0.19916,0.16298 -0.32886,0.23918 -0.28823,0.16933 0.082,-0.14103 -0.32551,0.22515 -0.74207,0.66676 -0.14825,0.15716 -0.63149,0.61035 -1.07388,1.00707 -0.44238,0.39672 -1.13589,1.04304 -1.54114,1.43625 -0.46194,0.44822 -0.77477,0.69145 -0.83858,0.65201 -0.0577,-0.0356 -0.0797,-0.0272 -0.0509,0.0194 0.079,0.1279 -2.35532,2.51865 -2.48376,2.43927 -0.066,-0.0408 -0.0859,-0.032 -0.0519,0.023 0.0645,0.10434 -0.46161,0.58982 -0.76356,0.70462 -0.3087,0.11737 -0.4515,0.096 -0.90094,-0.13485 z"
       id="path881" />
    <text
       xml:space="preserve"
       style="font-size:5.64444px;line-height:1.25;font-family:sans-serif;stroke-width:0.264583"
       x="62.199509"
       y="93.844124"
       id="text853"><tspan
         sodipodi:role="line"
         x="62.199509"
         y="93.844124"
         style="font-size:19.7556px;stroke-width:0.264583"
         id="tspan855">Yesterday, a fire burnt 10,000 </tspan><tspan
         sodipodi:role="line"
         x="62.199509"
         y="118.53863"
         style="font-size:19.7556px;stroke-width:0.264583"
         id="tspan859">acres of forest.</tspan></text>
    <text
       xml:space="preserve"
       style="font-size:5.64444px;line-height:1.25;font-family:sans-serif;stroke-width:0.264583"
       x="60.222019"
       y="196.79379"
       id="text863"><tspan
         sodipodi:role="line"
         id="tspan861"
         x="60.222019"
         y="196.79379"
         style="font-size:19.7556px;stroke-width:0.264583">I don't like this guy...</tspan></text>
    <path
       style="fill:#ec0f11;stroke-width:0.0846667"
       d="m 291.22664,200.86899 c -1.69422,-0.1856 -3.40757,-0.93459 -4.63179,-2.02478 -0.92088,-0.82005 -1.83603,-2.1723 -2.2191,-3.27899 -0.40541,-1.17124 -0.49908,-1.82003 -0.44939,-3.11286 0.0485,-1.26297 0.2272,-2.05597 0.69189,-3.07099 0.81976,-1.7906 2.54332,-3.2868 4.53405,-3.93595 1.29365,-0.42184 3.26027,-0.43527 4.445,-0.0303 1.49348,0.51045 2.56396,1.03959 2.89212,1.42959 l 0.22047,0.26201 -0.20163,0.0533 c -0.17506,0.0463 -0.18211,0.0616 -0.0535,0.11634 0.0815,0.0347 0.14817,0.0945 0.14817,0.13295 0,0.0384 -0.31598,-0.0913 -0.70218,-0.2884 -0.3862,-0.19706 -1.02438,-0.46866 -1.41817,-0.60354 -0.6349,-0.21747 -0.8694,-0.25056 -2.07065,-0.29216 l -1.35467,-0.0469 0.81991,-0.071 c 0.45094,-0.039 0.89541,-0.047 0.9877,-0.0177 0.0923,0.0293 0.19231,0.0136 0.22226,-0.0349 0.14435,-0.23355 -2.58343,-0.0126 -2.8342,0.22959 -0.11151,0.10769 -0.0934,0.11562 0.14817,0.0651 0.43358,-0.0907 0.32285,0.002 -0.254,0.21369 -0.9505,0.34807 -1.70388,0.77104 -2.30717,1.2953 -0.32597,0.28327 -0.50694,0.41872 -0.40217,0.30101 0.22296,-0.25049 0.23828,-0.33011 0.0635,-0.33011 -0.0699,0 -0.127,0.0309 -0.127,0.0687 0,0.0378 -0.0667,0.14306 -0.14816,0.23393 -0.0815,0.0909 -0.20532,0.24094 -0.27517,0.33347 -0.11773,0.15596 -0.11619,0.15975 0.0212,0.052 0.0815,-0.0639 0.14817,-0.0898 0.14817,-0.0576 0,0.0986 -0.51061,0.80718 -0.57481,0.79766 -0.19678,-0.0292 -0.25916,0.0489 -0.29622,0.37097 -0.0513,0.44587 -0.30675,1.16416 -0.41401,1.16416 -0.0438,0 -0.0613,0.0297 -0.0389,0.0659 0.0224,0.0363 -0.0121,0.31249 -0.0767,0.61383 -0.22716,1.05981 -0.1165,2.5601 0.27439,3.71995 0.32491,0.96408 1.43935,2.7904 1.6306,2.6722 0.0421,-0.026 0.10416,-0.003 0.13786,0.0518 0.0404,0.0653 0.0207,0.0789 -0.0576,0.0398 -0.0654,-0.0326 -0.0246,0.009 0.0907,0.0927 0.11531,0.0837 0.32486,0.24976 0.46566,0.36915 0.45773,0.38811 1.04065,0.75641 1.76077,1.11248 0.17569,0.0869 0.69004,0.25552 1.143,0.37478 0.72203,0.19009 0.94361,0.2119 1.79723,0.17687 0.84194,-0.0345 1.0643,-0.0764 1.64353,-0.30897 0.8503,-0.34148 1.48787,-0.75956 2.09745,-1.37536 0.93878,-0.94836 1.63667,-2.20947 1.88938,-3.4142 0.16671,-0.7947 0.18623,-2.2025 0.0396,-2.85761 -0.15907,-0.71081 -0.0667,-0.8168 0.68641,-0.7873 0.80781,0.0317 0.89588,0.12709 1.06472,1.1539 0.14078,0.85612 0.1101,2.06504 -0.0635,2.50242 -0.053,0.13342 -0.11063,0.39499 -0.12817,0.58126 -0.0175,0.18627 -0.20886,0.69529 -0.42516,1.13117 -0.39061,0.78714 -1.30164,2.04383 -1.48167,2.04383 -0.11067,0 0.019,-0.19098 0.34495,-0.508 0.36177,-0.35187 0.93517,-1.18533 0.81547,-1.18533 -0.0232,0 -0.12936,0.12812 -0.23581,0.28472 -0.10645,0.15659 -0.43168,0.54172 -0.72272,0.85582 -0.29104,0.31411 -0.53097,0.61461 -0.53317,0.66778 -0.007,0.15684 -0.87079,0.80344 -1.44971,1.08456 -1.34159,0.65147 -3.80289,1.07971 -5.27728,0.9182 z m 4.91372,-0.93736 c 0.0248,-0.0401 -0.0706,-0.0326 -0.21198,0.0167 -0.14138,0.0493 -0.27734,0.12243 -0.30213,0.16255 -0.0248,0.0401 0.0706,0.0326 0.21197,-0.0167 0.14139,-0.0493 0.27734,-0.12244 0.30214,-0.16255 z m 0.67428,-0.33372 c 0.33101,-0.21923 0.21333,-0.21948 -0.14613,-3.4e-4 -0.15246,0.093 -0.23911,0.16891 -0.19254,0.16877 0.0466,-1.7e-4 0.19897,-0.0759 0.33867,-0.16846 z m 0.67733,-0.42334 c 0.0288,-0.0466 0.0142,-0.0847 -0.0323,-0.0847 -0.0466,0 -0.10821,0.0381 -0.13699,0.0847 -0.0288,0.0466 -0.0142,0.0847 0.0323,0.0847 0.0466,0 0.10821,-0.0381 0.13699,-0.0847 z m 2.57508,-3.429 c 0.003,-0.0466 -0.0323,-0.0275 -0.0774,0.0423 -0.0451,0.0699 -0.08,0.18415 -0.0774,0.254 0.005,0.1341 0.14603,-0.13596 0.15484,-0.29634 z m 0.0659,-1.03555 c -0.0215,-0.0824 -0.0404,-0.0355 -0.0422,0.10422 -0.002,0.1397 0.0158,0.2071 0.039,0.14978 0.0232,-0.0573 0.0246,-0.17162 0.003,-0.254 z m 0.0847,-0.84667 c -0.0215,-0.0824 -0.0404,-0.0355 -0.0422,0.10422 -0.002,0.1397 0.0158,0.2071 0.039,0.14978 0.0232,-0.0573 0.0246,-0.17162 0.003,-0.254 z m -13.52067,-4.85877 c 0,-0.0466 -0.0381,-0.0611 -0.0847,-0.0323 -0.0466,0.0288 -0.0847,0.0904 -0.0847,0.13699 0,0.0466 0.0381,0.0611 0.0847,0.0323 0.0466,-0.0288 0.0847,-0.0904 0.0847,-0.13699 z m 1.27453,-1.39183 c 0.11186,-0.11907 0.41378,-0.33453 0.67093,-0.4788 0.25715,-0.14428 0.53113,-0.31667 0.60884,-0.38309 0.0777,-0.0664 0.30631,-0.17226 0.508,-0.23519 0.20169,-0.0629 0.2905,-0.11696 0.19737,-0.12003 -0.38132,-0.0126 -2.31819,1.12817 -2.32623,1.3701 -0.004,0.12502 0.14114,0.0598 0.34109,-0.15299 z m 2.45081,9.67355 c 0,-0.14715 -0.2738,-0.23615 -0.42982,-0.13972 -0.0642,0.0397 -0.23896,0.002 -0.42036,-0.0905 -0.21845,-0.11145 -0.33702,-0.13182 -0.40009,-0.0687 -0.14878,0.14877 -0.29293,-0.0106 -0.23169,-0.25621 0.0964,-0.38662 0.83369,-1.24962 2.54181,-2.97526 l 0.79616,-0.80434 -0.85042,-1.143 c -1.18368,-1.59091 -2.03455,-2.8764 -2.00457,-3.02848 0.0522,-0.26498 0.28064,-0.3096 0.78031,-0.15243 0.55312,0.17398 0.64858,0.25435 0.89996,0.7577 0.19345,0.38733 0.7438,1.10642 1.91129,2.49727 l 0.17958,0.21394 2.31809,-2.22749 c 2.48649,-2.38931 3.18126,-3.09955 3.25421,-3.32668 0.0658,-0.20489 0.36042,-0.27663 0.53044,-0.12916 0.0781,0.0678 0.23734,0.1477 0.35376,0.17757 0.33035,0.0848 0.47678,0.23929 0.53827,0.56802 0.0451,0.24087 0.0156,0.36278 -0.14326,0.59266 -0.10999,0.15918 -0.24669,0.27895 -0.30379,0.26615 -0.0571,-0.0128 -0.0822,0.0117 -0.0558,0.0545 0.0584,0.0945 -1.45859,1.55515 -1.55395,1.49621 -0.0371,-0.023 -0.13929,0.0424 -0.22701,0.14531 -0.15657,0.18363 -0.15652,0.18475 0.002,0.0615 0.38947,-0.30193 0.0316,0.11847 -0.64107,0.75303 -0.46099,0.43489 -0.74922,0.65162 -0.77648,0.58386 -0.0238,-0.0593 -0.0464,-0.0261 -0.05,0.0737 -0.004,0.0998 -0.0658,0.20413 -0.13808,0.23186 -0.0885,0.034 -0.11169,0.0162 -0.071,-0.0544 0.0332,-0.0577 -0.0343,-0.0188 -0.15005,0.0864 -0.11574,0.1052 -0.22944,0.17228 -0.25266,0.14905 -0.0232,-0.0232 -0.15135,0.0717 -0.28472,0.2109 -0.13338,0.13921 -0.19594,0.25311 -0.13902,0.25311 0.0777,0 0.0806,0.0427 0.0116,0.17171 -0.0505,0.0944 -0.13397,0.1457 -0.18539,0.11392 -0.054,-0.0334 -0.0697,-0.0193 -0.0372,0.0333 0.0311,0.0504 -0.17134,0.28915 -0.45259,0.53378 -0.2799,0.24345 -0.50891,0.47389 -0.50891,0.51208 0,0.0382 0.18853,0.34732 0.41896,0.68693 0.61083,0.90028 1.35954,2.40089 1.35635,2.71845 -0.002,0.24985 -0.0106,0.25695 -0.12345,0.10797 -0.0906,-0.11968 -0.24314,-0.1636 -0.61114,-0.17598 -0.26971,-0.009 -0.52976,0.0129 -0.57789,0.0488 -0.15198,0.11342 -0.2609,-0.029 -0.71417,-0.93401 -0.53548,-1.06913 -0.84221,-1.56634 -0.91894,-1.48961 -0.0316,0.0316 -0.0574,0.0881 -0.0574,0.12575 0,0.0376 -0.21853,0.30112 -0.48563,0.58561 -0.46307,0.49321 -0.65188,0.64153 -0.52378,0.41142 0.0324,-0.0582 -0.23471,0.17992 -0.59359,0.52917 -0.35888,0.34925 -0.69042,0.7112 -0.73674,0.80433 -0.0463,0.0931 0.0706,-7.6e-4 0.25992,-0.2086 0.49067,-0.53883 0.42556,-0.3116 -0.0799,0.27895 -0.23242,0.27153 -0.42258,0.4379 -0.42258,0.36971 z m 2.49766,-2.68373 c 0.0288,-0.0466 0.0142,-0.0847 -0.0323,-0.0847 -0.0466,0 -0.10821,0.0381 -0.13699,0.0847 -0.0288,0.0466 -0.0142,0.0847 0.0323,0.0847 0.0466,0 0.10821,-0.0381 0.13699,-0.0847 z m 1.94251,-1.85733 c 0.22523,-0.24888 0.0737,-0.3985 -0.17083,-0.16873 -0.11007,0.10341 -0.18,0.22057 -0.15541,0.26037 0.0699,0.11307 0.16521,0.0863 0.32624,-0.0916 z m -0.20684,-0.0373 c 0,-0.0176 0.0667,-0.0843 0.14816,-0.14817 0.13429,-0.10531 0.13729,-0.10232 0.032,0.032 -0.1106,0.14103 -0.18013,0.18588 -0.18013,0.1162 z m 4.02166,-3.6087 c 0.0288,-0.0466 0.0142,-0.0847 -0.0323,-0.0847 -0.0466,0 -0.10821,0.0381 -0.13699,0.0847 -0.0288,0.0466 -0.0142,0.0847 0.0323,0.0847 0.0466,0 0.10821,-0.0381 0.13699,-0.0847 z m -7.06966,6.88424 c 0,-0.0466 0.0762,-0.15362 0.16933,-0.23791 0.0931,-0.0843 0.16933,-0.11514 0.16933,-0.0686 0,0.0466 -0.0762,0.15363 -0.16933,0.23792 -0.0931,0.0843 -0.16933,0.11514 -0.16933,0.0686 z"
       id="path883" />
  </g>
</svg>
